<svg xmlns='http://www.w3.org/2000/svg' version='1.1' width='786px' height='565px'><svg xmlns="http://www.w3.org/2000/svg" id="graphic" fill="currentColor" font-family="Source Sans Pro" width="775" height="554" x="10.5" y="10.5"><g class="facets"><g class="fl-facets"><g class="fl-facet" transform="translate(29.286575317382812, 0)" opacity="1"><rect class="fl-facet-rect" width="745.7134246826172" height="523.3302149662197" fill="none"/><rect class="fl-facet-primary-rect" width="745.7134246826172" height="523.3302149662197" y="0" fill="none"/><g class="fl-facet-title"><rect class="fl-facet-title-bg" height="0" width="0" fill="rgb(238, 238, 238)" x="0" opacity="0"/><text class="fl-facet-title-text" font-size="14" font-weight="600" dx="0" dy="14.700000000000001" x="0" opacity="0" text-anchor="start"/></g><g class="fl-facet-primary" transform="translate(0, 0)"><g class="fl-chart"><rect class="fl-chart-debug-rectangle" x="0" y="0" style="stroke-width: 1px; fill: none; display: none; stroke: red;" width="745.7134246826172" height="523.3302149662197"/><clipPath class="fl-data-clip-path" id="fl-chart-layout-1-clip-path"><rect x="0" y="7.2" width="735.5310870335309" height="516.1302149662197"/></clipPath><clipPath class="fl-grid-clip-path" id="fl-chart-layout-1-grid-clip-path"><rect x="-1.5" y="5.7" width="738.5310870335309" height="519.1302149662197"/></clipPath><g class="fl-chart-background"><rect class="fl-chart-fill" x="0" y="7.2" width="735.5310870335309" height="516.1302149662197" fill="none"/><image class="fl-chart-image" x="0" y="7.2" width="735.5310870335309" height="516.1302149662197" preserveAspectRatio="none"/><rect class="fl-chart-interaction" x="0" y="7.2" width="735.5310870335309" height="516.1302149662197" style="opacity: 0;"/></g><g class="fl-data-background" clip-path="url(#fl-chart-layout-1-clip-path)"/><g class="fl-gridlines" clip-path="url(#fl-chart-layout-1-grid-clip-path)" style="pointer-events: none;"><g class="fl-gridlines-vertical"/><g class="fl-gridlines-horizontal"><line x1="0" x2="735.5310870335309" y1="523.3302149662197" y2="523.3302149662197" style="shape-rendering: crispedges; opacity: 1; stroke: rgb(238, 238, 238); stroke-width: 1.5;"/><line x1="0" x2="735.5310870335309" y1="471.7171934695978" y2="471.7171934695978" style="shape-rendering: crispedges; opacity: 1; stroke: rgb(238, 238, 238); stroke-width: 1.5;"/><line x1="0" x2="735.5310870335309" y1="420.1041719729758" y2="420.1041719729758" style="shape-rendering: crispedges; opacity: 1; stroke: rgb(238, 238, 238); stroke-width: 1.5;"/><line x1="0" x2="735.5310870335309" y1="368.4911504763538" y2="368.4911504763538" style="shape-rendering: crispedges; opacity: 1; stroke: rgb(238, 238, 238); stroke-width: 1.5;"/><line x1="0" x2="735.5310870335309" y1="316.8781289797318" y2="316.8781289797318" style="shape-rendering: crispedges; opacity: 1; stroke: rgb(238, 238, 238); stroke-width: 1.5;"/><line x1="0" x2="735.5310870335309" y1="265.2651074831099" y2="265.2651074831099" style="shape-rendering: crispedges; opacity: 1; stroke: rgb(238, 238, 238); stroke-width: 1.5;"/><line x1="0" x2="735.5310870335309" y1="213.6520859864879" y2="213.6520859864879" style="shape-rendering: crispedges; opacity: 1; stroke: rgb(238, 238, 238); stroke-width: 1.5;"/><line x1="0" x2="735.5310870335309" y1="162.03906448986592" y2="162.03906448986592" style="shape-rendering: crispedges; opacity: 1; stroke: rgb(238, 238, 238); stroke-width: 1.5;"/><line x1="0" x2="735.5310870335309" y1="110.42604299324393" y2="110.42604299324393" style="shape-rendering: crispedges; opacity: 1; stroke: rgb(238, 238, 238); stroke-width: 1.5;"/><line x1="0" x2="735.5310870335309" y1="58.81302149662196" y2="58.81302149662196" style="shape-rendering: crispedges; opacity: 1; stroke: rgb(238, 238, 238); stroke-width: 1.5;"/><line x1="0" x2="735.5310870335309" y1="7.2" y2="7.2" style="shape-rendering: crispedges; opacity: 1; stroke: rgb(238, 238, 238); stroke-width: 1.5;"/></g></g><g class="fl-axes"><g class="fl-x-axes"><g class="fl-axis fl-x-axis fl-bottom-axis"><g class="fl-axis-line"><line x1="0" y1="523.3302149662197" y2="523.3302149662197" style="shape-rendering: crispedges; stroke-linecap: square; stroke-width: 1.5; opacity: 1; stroke: rgb(238, 238, 238);" x2="735.5310870335309"/></g><g class="fl-axis-ticks"><g transform="translate(0,523.3302149662197)" style="opacity: 1;"><line y2="7" style="stroke: rgb(238, 238, 238); stroke-width: 1.5;"/><text text-anchor="end" transform="translate(0,10.5) rotate(-45,0,0) translate(0,8.316)" style="user-select: none; cursor: default; fill: rgb(170, 170, 170); font-size: 12.6px; font-weight: normal;"><tspan x="0" dy="0">0</tspan></text></g><g transform="translate(735.5310870335309,523.3302149662197)" style="opacity: 1;"><line y2="7" style="stroke: rgb(238, 238, 238); stroke-width: 1.5;"/><text text-anchor="end" transform="translate(0,10.5) rotate(-45,0,0) translate(0,8.316)" style="user-select: none; cursor: default; fill: rgb(170, 170, 170); font-size: 12.6px; font-weight: normal;"><tspan x="0" dy="0">60</tspan></text></g><g transform="translate(612.9425725279424,523.3302149662197)" style="opacity: 1;"><line y2="7" style="stroke: rgb(238, 238, 238); stroke-width: 1.5;"/><text text-anchor="end" transform="translate(0,10.5) rotate(-45,0,0) translate(0,8.316)" style="user-select: none; cursor: default; fill: rgb(170, 170, 170); font-size: 12.6px; font-weight: normal;"><tspan x="0" dy="0">50</tspan></text></g><g transform="translate(490.3540580223539,523.3302149662197)" style="opacity: 1;"><line y2="7" style="stroke: rgb(238, 238, 238); stroke-width: 1.5;"/><text text-anchor="end" transform="translate(0,10.5) rotate(-45,0,0) translate(0,8.316)" style="user-select: none; cursor: default; fill: rgb(170, 170, 170); font-size: 12.6px; font-weight: normal;"><tspan x="0" dy="0">40</tspan></text></g><g transform="translate(367.76554351676543,523.3302149662197)" style="opacity: 1;"><line y2="7" style="stroke: rgb(238, 238, 238); stroke-width: 1.5;"/><text text-anchor="end" transform="translate(0,10.5) rotate(-45,0,0) translate(0,8.316)" style="user-select: none; cursor: default; fill: rgb(170, 170, 170); font-size: 12.6px; font-weight: normal;"><tspan x="0" dy="0">30</tspan></text></g><g transform="translate(245.17702901117696,523.3302149662197)" style="opacity: 1;"><line y2="7" style="stroke: rgb(238, 238, 238); stroke-width: 1.5;"/><text text-anchor="end" transform="translate(0,10.5) rotate(-45,0,0) translate(0,8.316)" style="user-select: none; cursor: default; fill: rgb(170, 170, 170); font-size: 12.6px; font-weight: normal;"><tspan x="0" dy="0">20</tspan></text></g><g transform="translate(122.58851450558848,523.3302149662197)" style="opacity: 1;"><line y2="7" style="stroke: rgb(238, 238, 238); stroke-width: 1.5;"/><text text-anchor="end" transform="translate(0,10.5) rotate(-45,0,0) translate(0,8.316)" style="user-select: none; cursor: default; fill: rgb(170, 170, 170); font-size: 12.6px; font-weight: normal;"><tspan x="0" dy="0">10</tspan></text></g><g transform="translate(61.29425725279424,523.3302149662197)" style="opacity: 1;"><line y2="7" style="stroke: rgb(238, 238, 238); stroke-width: 1.5;"/><text text-anchor="end" transform="translate(0,10.5) rotate(-45,0,0) translate(0,8.316)" style="user-select: none; cursor: default; fill: rgb(170, 170, 170); font-size: 12.6px; font-weight: normal;"><tspan x="0" dy="0">5</tspan></text></g><g transform="translate(674.2368297807366,523.3302149662197)" style="opacity: 1;"><line y2="7" style="stroke: rgb(238, 238, 238); stroke-width: 1.5;"/><text text-anchor="end" transform="translate(0,10.5) rotate(-45,0,0) translate(0,8.316)" style="user-select: none; cursor: default; fill: rgb(170, 170, 170); font-size: 12.6px; font-weight: normal;"><tspan x="0" dy="0">55</tspan></text></g><g transform="translate(551.6483152751482,523.3302149662197)" style="opacity: 1;"><line y2="7" style="stroke: rgb(238, 238, 238); stroke-width: 1.5;"/><text text-anchor="end" transform="translate(0,10.5) rotate(-45,0,0) translate(0,8.316)" style="user-select: none; cursor: default; fill: rgb(170, 170, 170); font-size: 12.6px; font-weight: normal;"><tspan x="0" dy="0">45</tspan></text></g><g transform="translate(429.0598007695597,523.3302149662197)" style="opacity: 1;"><line y2="7" style="stroke: rgb(238, 238, 238); stroke-width: 1.5;"/><text text-anchor="end" transform="translate(0,10.5) rotate(-45,0,0) translate(0,8.316)" style="user-select: none; cursor: default; fill: rgb(170, 170, 170); font-size: 12.6px; font-weight: normal;"><tspan x="0" dy="0">35</tspan></text></g><g transform="translate(306.4712862639712,523.3302149662197)" style="opacity: 1;"><line y2="7" style="stroke: rgb(238, 238, 238); stroke-width: 1.5;"/><text text-anchor="end" transform="translate(0,10.5) rotate(-45,0,0) translate(0,8.316)" style="user-select: none; cursor: default; fill: rgb(170, 170, 170); font-size: 12.6px; font-weight: normal;"><tspan x="0" dy="0">25</tspan></text></g><g transform="translate(183.88277175838272,523.3302149662197)" style="opacity: 1;"><line y2="7" style="stroke: rgb(238, 238, 238); stroke-width: 1.5;"/><text text-anchor="end" transform="translate(0,10.5) rotate(-45,0,0) translate(0,8.316)" style="user-select: none; cursor: default; fill: rgb(170, 170, 170); font-size: 12.6px; font-weight: normal;"><tspan x="0" dy="0">15</tspan></text></g></g><g class="fl-axis-title"/></g><g class="fl-axis fl-x-axis fl-top-axis"><g class="fl-axis-line"/><g class="fl-axis-ticks"/><g class="fl-axis-title"/></g></g><g class="fl-y-axes"><g class="fl-axis fl-y-axis fl-left-axis"><g class="fl-axis-line"><line x1="0" x2="0" y1="523.3302149662197" y2="7.2" style="shape-rendering: crispedges; stroke-linecap: square; stroke-width: 1.5; opacity: 1; stroke: rgb(238, 238, 238);"/></g><g class="fl-axis-ticks"><g transform="translate(0,316.8781289797318)" style="opacity: 1;"><line x2="-7" style="stroke: rgb(238, 238, 238); stroke-width: 1.5;"/><text text-anchor="end" transform="translate(-10.5,4.158)" style="user-select: none; cursor: default; fill: rgb(170, 170, 170); font-size: 12.6px; font-weight: normal;"><tspan x="0" dy="0">100</tspan></text></g><g transform="translate(0,368.4911504763538)" style="opacity: 1;"><line x2="-7" style="stroke: rgb(238, 238, 238); stroke-width: 1.5;"/><text text-anchor="end" transform="translate(-10.5,4.158)" style="user-select: none; cursor: default; fill: rgb(170, 170, 170); font-size: 12.6px; font-weight: normal;"><tspan x="0" dy="0">90</tspan></text></g><g transform="translate(0,420.1041719729758)" style="opacity: 1;"><line x2="-7" style="stroke: rgb(238, 238, 238); stroke-width: 1.5;"/><text text-anchor="end" transform="translate(-10.5,4.158)" style="user-select: none; cursor: default; fill: rgb(170, 170, 170); font-size: 12.6px; font-weight: normal;"><tspan x="0" dy="0">80</tspan></text></g><g transform="translate(0,471.7171934695978)" style="opacity: 1;"><line x2="-7" style="stroke: rgb(238, 238, 238); stroke-width: 1.5;"/><text text-anchor="end" transform="translate(-10.5,4.158)" style="user-select: none; cursor: default; fill: rgb(170, 170, 170); font-size: 12.6px; font-weight: normal;"><tspan x="0" dy="0">70</tspan></text></g><g transform="translate(0,523.3302149662197)" style="opacity: 1;"><line x2="-7" style="stroke: rgb(238, 238, 238); stroke-width: 1.5;"/><text text-anchor="end" transform="translate(-10.5,4.158)" style="user-select: none; cursor: default; fill: rgb(170, 170, 170); font-size: 12.6px; font-weight: normal;"><tspan x="0" dy="0">60</tspan></text></g><g transform="translate(0,7.2)" style="opacity: 1;"><line x2="-7" style="stroke: rgb(238, 238, 238); stroke-width: 1.5;"/><text text-anchor="end" transform="translate(-10.5,4.158)" style="user-select: none; cursor: default; fill: rgb(170, 170, 170); font-size: 12.6px; font-weight: normal;"><tspan x="0" dy="0">160</tspan></text></g><g transform="translate(0,58.81302149662196)" style="opacity: 1;"><line x2="-7" style="stroke: rgb(238, 238, 238); stroke-width: 1.5;"/><text text-anchor="end" transform="translate(-10.5,4.158)" style="user-select: none; cursor: default; fill: rgb(170, 170, 170); font-size: 12.6px; font-weight: normal;"><tspan x="0" dy="0">150</tspan></text></g><g transform="translate(0,110.42604299324393)" style="opacity: 1;"><line x2="-7" style="stroke: rgb(238, 238, 238); stroke-width: 1.5;"/><text text-anchor="end" transform="translate(-10.5,4.158)" style="user-select: none; cursor: default; fill: rgb(170, 170, 170); font-size: 12.6px; font-weight: normal;"><tspan x="0" dy="0">140</tspan></text></g><g transform="translate(0,162.03906448986592)" style="opacity: 1;"><line x2="-7" style="stroke: rgb(238, 238, 238); stroke-width: 1.5;"/><text text-anchor="end" transform="translate(-10.5,4.158)" style="user-select: none; cursor: default; fill: rgb(170, 170, 170); font-size: 12.6px; font-weight: normal;"><tspan x="0" dy="0">130</tspan></text></g><g transform="translate(0,213.6520859864879)" style="opacity: 1;"><line x2="-7" style="stroke: rgb(238, 238, 238); stroke-width: 1.5;"/><text text-anchor="end" transform="translate(-10.5,4.158)" style="user-select: none; cursor: default; fill: rgb(170, 170, 170); font-size: 12.6px; font-weight: normal;"><tspan x="0" dy="0">120</tspan></text></g><g transform="translate(0,265.2651074831099)" style="opacity: 1;"><line x2="-7" style="stroke: rgb(238, 238, 238); stroke-width: 1.5;"/><text text-anchor="end" transform="translate(-10.5,4.158)" style="user-select: none; cursor: default; fill: rgb(170, 170, 170); font-size: 12.6px; font-weight: normal;"><tspan x="0" dy="0">110</tspan></text></g></g><g class="fl-axis-title"/></g><g class="fl-axis fl-y-axis fl-right-axis"><g class="fl-axis-line"/><g class="fl-axis-ticks"/><g class="fl-axis-title"/></g></g></g><g class="fl-data-foreground" clip-path="url(#fl-chart-layout-1-clip-path)"/></g></g></g></g></g><g class="annotations below"/><g id="areas"><path class="shading" d="M0,327.20073327905624C40.86283816852949,320.7491055919785,81.72567633705899,314.29747790490075,122.58851450558848,306.5555246804075C163.45135267411797,298.8135714559142,204.31419084264746,287.6307501316461,245.17702901117696,280.7490139320965C286.03986717970645,273.8672777325469,326.90270534823594,273.8672777325469,367.76554351676543,265.2651074831099C408.6283816852949,256.6629372336729,449.4912198538244,242.03924780963,490.3540580223539,229.13599243547452C531.2168961908834,216.23273706131903,572.0797343594129,215.3725200363753,612.9425725279424,187.8455752381769C653.8054106964719,160.3186304399785,694.6682488650014,106.98517489346912,735.5310870335309,53.65171934695976L735.5310870335309,105.26474084358173C694.6682488650014,168.9208006894155,653.8054106964719,232.57686053524924,612.9425725279424,249.78120103412326C572.0797343594129,266.9855415329973,531.2168961908834,266.9855415329973,490.3540580223539,275.58771178243427C449.4912198538244,284.18988203187126,408.6283816852949,292.79205228130826,367.76554351676543,301.39422253074525C326.90270534823594,309.99639278018225,286.03986717970645,318.59856302961924,245.17702901117696,327.20073327905624C204.31419084264746,335.80290352849323,163.45135267411797,344.40507377793017,122.58851450558848,353.00724402736716C81.72567633705899,361.60941427680416,40.86283816852949,370.21158452624115,0,378.8137547756782" transform="translate(29.286575317382812,0)" opacity="0.1" pointer-events="none" clip-path="url(#clip-0-1)" fill="rgb(0, 0, 0)"/><path class="shading" d="M0,347.84594187770495C40.86283816852949,343.9749652654583,81.72567633705899,340.1039886532117,122.58851450558848,332.3620354287184C163.45135267411797,324.6200822042251,204.31419084264746,311.71682683006964,245.17702901117696,301.39422253074525C286.03986717970645,291.07161823142087,326.90270534823594,279.0285798822091,367.76554351676543,270.4264096327721C408.6283816852949,261.8242393833351,449.4912198538244,260.10380533344767,490.3540580223539,249.78120103412326C531.2168961908834,239.45859673479885,572.0797343594129,226.55534136064338,612.9425725279424,208.4907838368257C653.8054106964719,190.42622631300802,694.6682488650014,165.91004110211256,735.5310870335309,141.39385589121713L735.5310870335309,172.36166878919028C694.6682488650014,202.46926466221976,653.8054106964719,232.57686053524927,612.9425725279424,249.78120103412326C572.0797343594129,266.9855415329973,531.2168961908834,266.9855415329973,490.3540580223539,275.58771178243427C449.4912198538244,284.18988203187126,408.6283816852949,292.79205228130826,367.76554351676543,301.39422253074525C326.90270534823594,309.99639278018225,286.03986717970645,318.59856302961924,245.17702901117696,327.20073327905624C204.31419084264746,335.80290352849323,163.45135267411797,344.40507377793017,122.58851450558848,353.00724402736716C81.72567633705899,361.60941427680416,40.86283816852949,370.21158452624115,0,378.8137547756782" transform="translate(29.286575317382812,0)" opacity="0.1" pointer-events="none" clip-path="url(#clip-0-4)" fill="rgb(255, 0, 0)"/></g><g id="lines"><g class="series"><clipPath id="clip-0-0"><rect width="735.5310870335309" x="0" y="4.4" height="521.7302149662197"/></clipPath><path class="line" opacity="1" pointer-events="none" fill="none" stroke="black" stroke-width="2.8000000000000003" transform="translate(29.286575317382812,0)" clip-path="url(#clip-0-0)" clip-path-id="0-0" d="M0,356.10402531716454C40.86283816852949,348.1040069851881,81.72567633705899,340.1039886532117,122.58851450558848,331.3297749987859C163.45135267411797,322.55556134436017,204.31419084264746,311.8888702350584,245.17702901117696,303.45874339061015C286.03986717970645,295.0286165461619,326.90270534823594,288.8350539665673,367.76554351676543,280.7490139320965C408.6283816852949,272.6629738976257,449.4912198538244,264.7489772681436,490.3540580223539,254.94250318378545C531.2168961908834,245.13602909942728,572.0797343594129,243.9317252645061,612.9425725279424,221.91016942594737C653.8054106964719,199.88861358738865,694.6682488650014,144.31859377602572,735.5310870335309,88.74857396466278"/></g><g class="series"><clipPath id="clip-0-1"><rect width="735.5310870335309" x="0" y="4.4" height="521.7302149662197"/></clipPath><path class="line" opacity="1" pointer-events="none" fill="none" stroke-dasharray="0 2" stroke="#EDAD08" stroke-width="2.8000000000000003" transform="translate(29.286575317382812,0)" clip-path="url(#clip-0-1)" clip-path-id="0-1" d="M0,327.20073327905624C40.86283816852949,320.7491055919785,81.72567633705899,314.29747790490075,122.58851450558848,306.5555246804075C163.45135267411797,298.8135714559142,204.31419084264746,287.6307501316461,245.17702901117696,280.7490139320965C286.03986717970645,273.8672777325469,326.90270534823594,273.8672777325469,367.76554351676543,265.2651074831099C408.6283816852949,256.6629372336729,449.4912198538244,242.03924780963,490.3540580223539,229.13599243547452C531.2168961908834,216.23273706131903,572.0797343594129,215.3725200363753,612.9425725279424,187.8455752381769C653.8054106964719,160.3186304399785,694.6682488650014,106.98517489346912,735.5310870335309,53.65171934695976"/></g><g class="series"><clipPath id="clip-0-2"><rect width="735.5310870335309" x="0" y="4.4" height="521.7302149662197"/></clipPath><path class="line" opacity="1" pointer-events="none" fill="none" stroke-dasharray="0 2" stroke="#73AF48" stroke-width="2.8000000000000003" transform="translate(29.286575317382812,0)" clip-path="url(#clip-0-2)" clip-path-id="0-2" d="M0,378.8137547756782C40.86283816852949,370.21158452624115,81.72567633705899,361.60941427680416,122.58851450558848,353.00724402736716C163.45135267411797,344.40507377793017,204.31419084264746,335.80290352849323,245.17702901117696,327.20073327905624C286.03986717970645,318.59856302961924,326.90270534823594,309.99639278018225,367.76554351676543,301.39422253074525C408.6283816852949,292.79205228130826,449.4912198538244,284.18988203187126,490.3540580223539,275.58771178243427C531.2168961908834,266.9855415329973,572.0797343594129,266.9855415329973,612.9425725279424,249.78120103412326C653.8054106964719,232.57686053524924,694.6682488650014,168.9208006894155,735.5310870335309,105.26474084358173"/></g><g class="series"><clipPath id="clip-0-3"><rect width="735.5310870335309" x="0" y="4.4" height="521.7302149662197"/></clipPath><path class="line" opacity="1" pointer-events="none" fill="none" stroke="red" stroke-width="2.8000000000000003" transform="translate(29.286575317382812,0)" clip-path="url(#clip-0-3)" clip-path-id="0-3" d="M0,363.3298483266916C40.86283816852949,355.84596020968144,81.72567633705899,348.3620720926713,122.58851450558848,339.5878584382456C163.45135267411797,330.8136447838198,204.31419084264746,319.8028668645404,245.17702901117696,310.6845664001372C286.03986717970645,301.566265935734,326.90270534823594,293.4802259012632,367.76554351676543,284.87805565182623C408.6283816852949,276.27588540238924,449.4912198538244,268.70597558288466,490.3540580223539,259.07154490351525C531.2168961908834,249.4371142241458,572.0797343594129,244.4478554794723,612.9425725279424,227.07147157560956C653.8054106964719,209.69508767174682,694.6682488650014,182.25416457604283,735.5310870335309,154.8132414803388"/></g><g class="series"><clipPath id="clip-0-4"><rect width="735.5310870335309" x="0" y="4.4" height="521.7302149662197"/></clipPath><path class="line" opacity="1" pointer-events="none" fill="none" stroke-dasharray="0 2" stroke="#38A6A5" stroke-width="2.8000000000000003" transform="translate(29.286575317382812,0)" clip-path="url(#clip-0-4)" clip-path-id="0-4" d="M0,347.84594187770495C40.86283816852949,343.9749652654583,81.72567633705899,340.1039886532117,122.58851450558848,332.3620354287184C163.45135267411797,324.6200822042251,204.31419084264746,311.71682683006964,245.17702901117696,301.39422253074525C286.03986717970645,291.07161823142087,326.90270534823594,279.0285798822091,367.76554351676543,270.4264096327721C408.6283816852949,261.8242393833351,449.4912198538244,260.10380533344767,490.3540580223539,249.78120103412326C531.2168961908834,239.45859673479885,572.0797343594129,226.55534136064338,612.9425725279424,208.4907838368257C653.8054106964719,190.42622631300802,694.6682488650014,165.91004110211256,735.5310870335309,141.39385589121713"/></g><g class="series"><clipPath id="clip-0-5"><rect width="735.5310870335309" x="0" y="4.4" height="521.7302149662197"/></clipPath><path class="line" opacity="1" pointer-events="none" fill="none" stroke-dasharray="0 2" stroke="#E17C05" stroke-width="2.8000000000000003" transform="translate(29.286575317382812,0)" clip-path="url(#clip-0-5)" clip-path-id="0-5" d="M0,378.8137547756782C40.86283816852949,370.21158452624115,81.72567633705899,361.60941427680416,122.58851450558848,353.00724402736716C163.45135267411797,344.40507377793017,204.31419084264746,335.80290352849323,245.17702901117696,327.20073327905624C286.03986717970645,318.59856302961924,326.90270534823594,309.99639278018225,367.76554351676543,301.39422253074525C408.6283816852949,292.79205228130826,449.4912198538244,284.18988203187126,490.3540580223539,275.58771178243427C531.2168961908834,266.9855415329973,572.0797343594129,266.9855415329973,612.9425725279424,249.78120103412326C653.8054106964719,232.57686053524927,694.6682488650014,202.46926466221976,735.5310870335309,172.36166878919028"/></g><g class="series"><clipPath id="clip-0-6"><rect width="735.5310870335309" x="0" y="4.4" height="521.7302149662197"/></clipPath><path class="line" opacity="1" pointer-events="none" fill="none" stroke="#5F4690" stroke-width="2.8000000000000003" transform="translate(29.286575317382812,0)" clip-path="url(#clip-0-6)" clip-path-id="0-6"/></g></g><g id="data-points"><g class="series" transform="translate(29.286575317382812,0)" clip-path="url(#facet-clip-0)"><path class="data-point" visibility="hidden" fill="black" data-type="point" transform="translate(0, 0)" d="M-3.5,356.10402531716454A3.5,3.5,0,1,1,3.5,356.10402531716454A3.5,3.5,0,1,1,-3.5,356.10402531716454Z" opacity="0" id="point-0-0"/><path class="data-point" visibility="hidden" fill="black" data-type="point" transform="translate(0, 0)" d="M119.08851450558848,331.3297749987859A3.5,3.5,0,1,1,126.08851450558848,331.3297749987859A3.5,3.5,0,1,1,119.08851450558848,331.3297749987859Z" opacity="0" id="point-0-1"/><path class="data-point" visibility="hidden" fill="black" data-type="point" transform="translate(0, 0)" d="M241.67702901117696,303.45874339061015A3.5,3.5,0,1,1,248.67702901117696,303.45874339061015A3.5,3.5,0,1,1,241.67702901117696,303.45874339061015Z" opacity="0" id="point-0-2"/><path class="data-point" visibility="hidden" fill="black" data-type="point" transform="translate(0, 0)" d="M364.26554351676543,280.7490139320965A3.5,3.5,0,1,1,371.26554351676543,280.7490139320965A3.5,3.5,0,1,1,364.26554351676543,280.7490139320965Z" opacity="0" id="point-0-3"/><path class="data-point" visibility="hidden" fill="black" data-type="point" transform="translate(0, 0)" d="M486.8540580223539,254.94250318378545A3.5,3.5,0,1,1,493.8540580223539,254.94250318378545A3.5,3.5,0,1,1,486.8540580223539,254.94250318378545Z" opacity="0" id="point-0-4"/><path class="data-point" visibility="hidden" fill="black" data-type="point" transform="translate(0, 0)" d="M609.4425725279424,221.91016942594737A3.5,3.5,0,1,1,616.4425725279424,221.91016942594737A3.5,3.5,0,1,1,609.4425725279424,221.91016942594737Z" opacity="0" id="point-0-5"/><path class="data-point" visibility="hidden" fill="black" data-type="point" transform="translate(0, 0)" d="M732.0310870335309,88.74857396466278A3.5,3.5,0,1,1,739.0310870335309,88.74857396466278A3.5,3.5,0,1,1,732.0310870335309,88.74857396466278Z" opacity="0" id="point-0-6"/></g><g class="series" transform="translate(29.286575317382812,0)" clip-path="url(#facet-clip-0)"><path class="data-point" visibility="hidden" fill="#EDAD08" data-type="point" transform="translate(0, 0)" d="M-3.5,327.20073327905624A3.5,3.5,0,1,1,3.5,327.20073327905624A3.5,3.5,0,1,1,-3.5,327.20073327905624Z" opacity="0" id="point-1-0"/><path class="data-point" visibility="hidden" fill="#EDAD08" data-type="point" transform="translate(0, 0)" d="M119.08851450558848,306.5555246804075A3.5,3.5,0,1,1,126.08851450558848,306.5555246804075A3.5,3.5,0,1,1,119.08851450558848,306.5555246804075Z" opacity="0" id="point-1-1"/><path class="data-point" visibility="hidden" fill="#EDAD08" data-type="point" transform="translate(0, 0)" d="M241.67702901117696,280.7490139320965A3.5,3.5,0,1,1,248.67702901117696,280.7490139320965A3.5,3.5,0,1,1,241.67702901117696,280.7490139320965Z" opacity="0" id="point-1-2"/><path class="data-point" visibility="hidden" fill="#EDAD08" data-type="point" transform="translate(0, 0)" d="M364.26554351676543,265.2651074831099A3.5,3.5,0,1,1,371.26554351676543,265.2651074831099A3.5,3.5,0,1,1,364.26554351676543,265.2651074831099Z" opacity="0" id="point-1-3"/><path class="data-point" visibility="hidden" fill="#EDAD08" data-type="point" transform="translate(0, 0)" d="M486.8540580223539,229.13599243547452A3.5,3.5,0,1,1,493.8540580223539,229.13599243547452A3.5,3.5,0,1,1,486.8540580223539,229.13599243547452Z" opacity="0" id="point-1-4"/><path class="data-point" visibility="hidden" fill="#EDAD08" data-type="point" transform="translate(0, 0)" d="M609.4425725279424,187.8455752381769A3.5,3.5,0,1,1,616.4425725279424,187.8455752381769A3.5,3.5,0,1,1,609.4425725279424,187.8455752381769Z" opacity="0" id="point-1-5"/><path class="data-point" visibility="hidden" fill="#EDAD08" data-type="point" transform="translate(0, 0)" d="M732.0310870335309,53.65171934695976A3.5,3.5,0,1,1,739.0310870335309,53.65171934695976A3.5,3.5,0,1,1,732.0310870335309,53.65171934695976Z" opacity="0" id="point-1-6"/></g><g class="series" transform="translate(29.286575317382812,0)" clip-path="url(#facet-clip-0)"><path class="data-point" visibility="hidden" fill="#73AF48" data-type="point" transform="translate(0, 0)" d="M-3.5,378.8137547756782A3.5,3.5,0,1,1,3.5,378.8137547756782A3.5,3.5,0,1,1,-3.5,378.8137547756782Z" opacity="0" id="point-2-0"/><path class="data-point" visibility="hidden" fill="#73AF48" data-type="point" transform="translate(0, 0)" d="M119.08851450558848,353.00724402736716A3.5,3.5,0,1,1,126.08851450558848,353.00724402736716A3.5,3.5,0,1,1,119.08851450558848,353.00724402736716Z" opacity="0" id="point-2-1"/><path class="data-point" visibility="hidden" fill="#73AF48" data-type="point" transform="translate(0, 0)" d="M241.67702901117696,327.20073327905624A3.5,3.5,0,1,1,248.67702901117696,327.20073327905624A3.5,3.5,0,1,1,241.67702901117696,327.20073327905624Z" opacity="0" id="point-2-2"/><path class="data-point" visibility="hidden" fill="#73AF48" data-type="point" transform="translate(0, 0)" d="M364.26554351676543,301.39422253074525A3.5,3.5,0,1,1,371.26554351676543,301.39422253074525A3.5,3.5,0,1,1,364.26554351676543,301.39422253074525Z" opacity="0" id="point-2-3"/><path class="data-point" visibility="hidden" fill="#73AF48" data-type="point" transform="translate(0, 0)" d="M486.8540580223539,275.58771178243427A3.5,3.5,0,1,1,493.8540580223539,275.58771178243427A3.5,3.5,0,1,1,486.8540580223539,275.58771178243427Z" opacity="0" id="point-2-4"/><path class="data-point" visibility="hidden" fill="#73AF48" data-type="point" transform="translate(0, 0)" d="M609.4425725279424,249.78120103412326A3.5,3.5,0,1,1,616.4425725279424,249.78120103412326A3.5,3.5,0,1,1,609.4425725279424,249.78120103412326Z" opacity="0" id="point-2-5"/><path class="data-point" visibility="hidden" fill="#73AF48" data-type="point" transform="translate(0, 0)" d="M732.0310870335309,105.26474084358173A3.5,3.5,0,1,1,739.0310870335309,105.26474084358173A3.5,3.5,0,1,1,732.0310870335309,105.26474084358173Z" opacity="0" id="point-2-6"/></g><g class="series" transform="translate(29.286575317382812,0)" clip-path="url(#facet-clip-0)"><path class="data-point" visibility="hidden" fill="red" data-type="point" transform="translate(0, 0)" d="M-3.5,363.3298483266916A3.5,3.5,0,1,1,3.5,363.3298483266916A3.5,3.5,0,1,1,-3.5,363.3298483266916Z" opacity="0" id="point-3-0"/><path class="data-point" visibility="hidden" fill="red" data-type="point" transform="translate(0, 0)" d="M119.08851450558848,339.5878584382456A3.5,3.5,0,1,1,126.08851450558848,339.5878584382456A3.5,3.5,0,1,1,119.08851450558848,339.5878584382456Z" opacity="0" id="point-3-1"/><path class="data-point" visibility="hidden" fill="red" data-type="point" transform="translate(0, 0)" d="M241.67702901117696,310.6845664001372A3.5,3.5,0,1,1,248.67702901117696,310.6845664001372A3.5,3.5,0,1,1,241.67702901117696,310.6845664001372Z" opacity="0" id="point-3-2"/><path class="data-point" visibility="hidden" fill="red" data-type="point" transform="translate(0, 0)" d="M364.26554351676543,284.87805565182623A3.5,3.5,0,1,1,371.26554351676543,284.87805565182623A3.5,3.5,0,1,1,364.26554351676543,284.87805565182623Z" opacity="0" id="point-3-3"/><path class="data-point" visibility="hidden" fill="red" data-type="point" transform="translate(0, 0)" d="M486.8540580223539,259.07154490351525A3.5,3.5,0,1,1,493.8540580223539,259.07154490351525A3.5,3.5,0,1,1,486.8540580223539,259.07154490351525Z" opacity="0" id="point-3-4"/><path class="data-point" visibility="hidden" fill="red" data-type="point" transform="translate(0, 0)" d="M609.4425725279424,227.07147157560956A3.5,3.5,0,1,1,616.4425725279424,227.07147157560956A3.5,3.5,0,1,1,609.4425725279424,227.07147157560956Z" opacity="0" id="point-3-5"/><path class="data-point" visibility="hidden" fill="red" data-type="point" transform="translate(0, 0)" d="M732.0310870335309,154.8132414803388A3.5,3.5,0,1,1,739.0310870335309,154.8132414803388A3.5,3.5,0,1,1,732.0310870335309,154.8132414803388Z" opacity="0" id="point-3-6"/></g><g class="series" transform="translate(29.286575317382812,0)" clip-path="url(#facet-clip-0)"><path class="data-point" visibility="hidden" fill="#38A6A5" data-type="point" transform="translate(0, 0)" d="M-3.5,347.84594187770495A3.5,3.5,0,1,1,3.5,347.84594187770495A3.5,3.5,0,1,1,-3.5,347.84594187770495Z" opacity="0" id="point-4-0"/><path class="data-point" visibility="hidden" fill="#38A6A5" data-type="point" transform="translate(0, 0)" d="M119.08851450558848,332.3620354287184A3.5,3.5,0,1,1,126.08851450558848,332.3620354287184A3.5,3.5,0,1,1,119.08851450558848,332.3620354287184Z" opacity="0" id="point-4-1"/><path class="data-point" visibility="hidden" fill="#38A6A5" data-type="point" transform="translate(0, 0)" d="M241.67702901117696,301.39422253074525A3.5,3.5,0,1,1,248.67702901117696,301.39422253074525A3.5,3.5,0,1,1,241.67702901117696,301.39422253074525Z" opacity="0" id="point-4-2"/><path class="data-point" visibility="hidden" fill="#38A6A5" data-type="point" transform="translate(0, 0)" d="M364.26554351676543,270.4264096327721A3.5,3.5,0,1,1,371.26554351676543,270.4264096327721A3.5,3.5,0,1,1,364.26554351676543,270.4264096327721Z" opacity="0" id="point-4-3"/><path class="data-point" visibility="hidden" fill="#38A6A5" data-type="point" transform="translate(0, 0)" d="M486.8540580223539,249.78120103412326A3.5,3.5,0,1,1,493.8540580223539,249.78120103412326A3.5,3.5,0,1,1,486.8540580223539,249.78120103412326Z" opacity="0" id="point-4-4"/><path class="data-point" visibility="hidden" fill="#38A6A5" data-type="point" transform="translate(0, 0)" d="M609.4425725279424,208.4907838368257A3.5,3.5,0,1,1,616.4425725279424,208.4907838368257A3.5,3.5,0,1,1,609.4425725279424,208.4907838368257Z" opacity="0" id="point-4-5"/><path class="data-point" visibility="hidden" fill="#38A6A5" data-type="point" transform="translate(0, 0)" d="M732.0310870335309,141.39385589121713A3.5,3.5,0,1,1,739.0310870335309,141.39385589121713A3.5,3.5,0,1,1,732.0310870335309,141.39385589121713Z" opacity="0" id="point-4-6"/></g><g class="series" transform="translate(29.286575317382812,0)" clip-path="url(#facet-clip-0)"><path class="data-point" visibility="hidden" fill="#E17C05" data-type="point" transform="translate(0, 0)" d="M-3.5,378.8137547756782A3.5,3.5,0,1,1,3.5,378.8137547756782A3.5,3.5,0,1,1,-3.5,378.8137547756782Z" opacity="0" id="point-5-0"/><path class="data-point" visibility="hidden" fill="#E17C05" data-type="point" transform="translate(0, 0)" d="M119.08851450558848,353.00724402736716A3.5,3.5,0,1,1,126.08851450558848,353.00724402736716A3.5,3.5,0,1,1,119.08851450558848,353.00724402736716Z" opacity="0" id="point-5-1"/><path class="data-point" visibility="hidden" fill="#E17C05" data-type="point" transform="translate(0, 0)" d="M241.67702901117696,327.20073327905624A3.5,3.5,0,1,1,248.67702901117696,327.20073327905624A3.5,3.5,0,1,1,241.67702901117696,327.20073327905624Z" opacity="0" id="point-5-2"/><path class="data-point" visibility="hidden" fill="#E17C05" data-type="point" transform="translate(0, 0)" d="M364.26554351676543,301.39422253074525A3.5,3.5,0,1,1,371.26554351676543,301.39422253074525A3.5,3.5,0,1,1,364.26554351676543,301.39422253074525Z" opacity="0" id="point-5-3"/><path class="data-point" visibility="hidden" fill="#E17C05" data-type="point" transform="translate(0, 0)" d="M486.8540580223539,275.58771178243427A3.5,3.5,0,1,1,493.8540580223539,275.58771178243427A3.5,3.5,0,1,1,486.8540580223539,275.58771178243427Z" opacity="0" id="point-5-4"/><path class="data-point" visibility="hidden" fill="#E17C05" data-type="point" transform="translate(0, 0)" d="M609.4425725279424,249.78120103412326A3.5,3.5,0,1,1,616.4425725279424,249.78120103412326A3.5,3.5,0,1,1,609.4425725279424,249.78120103412326Z" opacity="0" id="point-5-5"/><path class="data-point" visibility="hidden" fill="#E17C05" data-type="point" transform="translate(0, 0)" d="M732.0310870335309,172.36166878919028A3.5,3.5,0,1,1,739.0310870335309,172.36166878919028A3.5,3.5,0,1,1,732.0310870335309,172.36166878919028Z" opacity="0" id="point-5-6"/></g><g class="series" transform="translate(29.286575317382812,0)" clip-path="url(#facet-clip-0)"/></g><g id="lines-secondary"/><g id="data-points-secondary"/><g id="axes-highlights"><g class="axis-highlights-facet"><defs><pattern class="fl-pattern-auto" width="4" height="4" patternUnits="userSpaceOnUse" id="fl-pattern-diagonal-x"><path stroke-width="1" shape-rendering="auto" stroke-linecap="square" d="M 0 4 l 4 -4 M -1 1 l 2 -2 M 3 5 l 2 -2" style="stroke: currentcolor;"/></pattern><pattern class="fl-pattern-auto" width="4" height="4" patternUnits="userSpaceOnUse" id="fl-pattern-dots-x"><path stroke-width="1" shape-rendering="auto" stroke-linecap="square" d="M 1 2 A 1.2 1.2 0 1 1 1 2.1 Z" style="fill: currentcolor;"/></pattern><pattern class="fl-pattern-auto" width="4" height="4" patternUnits="userSpaceOnUse" id="fl-pattern-grid-x"><path stroke-width="1" shape-rendering="auto" stroke-linecap="square" d="M 2 0 l 0 4 M 0 2 l 4 0" style="stroke: currentcolor;"/></pattern><pattern class="fl-pattern-auto" width="4" height="4" patternUnits="userSpaceOnUse" id="fl-pattern-diagonal-y"><path stroke-width="1" shape-rendering="auto" stroke-linecap="square" d="M 0 4 l 4 -4 M -1 1 l 2 -2 M 3 5 l 2 -2" style="stroke: currentcolor;"/></pattern><pattern class="fl-pattern-auto" width="4" height="4" patternUnits="userSpaceOnUse" id="fl-pattern-grid-y"><path stroke-width="1" shape-rendering="auto" stroke-linecap="square" d="M 2 0 l 0 4 M 0 2 l 4 0" style="stroke: currentcolor;"/></pattern><pattern class="fl-pattern-auto" width="4" height="4" patternUnits="userSpaceOnUse" id="fl-pattern-dots-y"><path stroke-width="1" shape-rendering="auto" stroke-linecap="square" d="M 1 2 A 1.2 1.2 0 1 1 1 2.1 Z" style="fill: currentcolor;"/></pattern></defs><g class="axis-highlights" style="opacity: 1;" transform="translate(29.286575317382812, 0)"/></g></g><g id="data-point-labels"><g class="series" transform="translate(29.286575317382812,0)" clip-path="url(#facet-clip-0)"/><g class="series" transform="translate(29.286575317382812,0)" clip-path="url(#facet-clip-0)"/><g class="series" transform="translate(29.286575317382812,0)" clip-path="url(#facet-clip-0)"/><g class="series" transform="translate(29.286575317382812,0)" clip-path="url(#facet-clip-0)"/><g class="series" transform="translate(29.286575317382812,0)" clip-path="url(#facet-clip-0)"/><g class="series" transform="translate(29.286575317382812,0)" clip-path="url(#facet-clip-0)"/><g class="series" transform="translate(29.286575317382812,0)" clip-path="url(#facet-clip-0)"/></g><g id="stack-labels"/><g class="annotations above"/></svg><svg xmlns="http://www.w3.org/2000/svg" class="flourish-panel-close" viewBox="0 0 40 40" style="width: 1.25rem; height: 1.25rem; position: absolute; right: 1rem; top: 1rem; cursor: pointer; opacity: 0;" x="-31.5" y="14"><path stroke="#333333" stroke-width="0.5rem" stroke-linecap="round" d="M 10,10 L 30,30 M 30,10 L 10,30" style="stroke: rgb(51, 51, 51);"/></svg></svg>