M48
; DRILL file {KiCad 6.0.9-8da3e8f707~116~ubuntu20.04.1} date Wed 02 Nov 2022 01:09:49 AM CET
; FORMAT={-:-/ absolute / inch / decimal}
; #@! TF.CreationDate,2022-11-02T01:09:49+01:00
; #@! TF.GenerationSoftware,Kicad,Pcbnew,6.0.9-8da3e8f707~116~ubuntu20.04.1
; #@! TF.FileFunction,Plated,1,2,PTH
FMAT,2
INCH
; #@! TA.AperFunction,Plated,PTH,ViaDrill
T1C0.0157
; #@! TA.AperFunction,Plated,PTH,ComponentDrill
T2C0.0315
; #@! TA.AperFunction,Plated,PTH,ComponentDrill
T3C0.0354
; #@! TA.AperFunction,Plated,PTH,ComponentDrill
T4C0.0394
; #@! TA.AperFunction,Plated,PTH,ComponentDrill
T5C0.1260
%
G90
G05
T1
X4.3332Y-5.2259
X4.4094Y-5.2441
X4.5118Y-5.1969
T2
X3.5335Y-3.9528
X3.5335Y-4.0315
X3.5335Y-4.1102
X3.5335Y-4.6693
X3.5335Y-4.748
X3.5335Y-4.8268
X3.5354Y-4.3307
X3.5354Y-4.4094
X3.5354Y-4.4882
X3.937Y-4.0602
X3.937Y-4.4602
X4.0709Y-4.0602
X4.0709Y-4.4602
X4.1575Y-4.6457
X4.1575Y-5.0457
X4.2126Y-4.0567
X4.2126Y-4.4567
X4.2913Y-4.6457
X4.2913Y-5.0457
X4.4331Y-4.6457
X4.4331Y-5.0457
X4.8031Y-3.9528
X4.8031Y-4.0315
X4.8031Y-4.1102
X4.8031Y-4.2835
X4.8031Y-4.3622
X4.8031Y-4.4409
X4.8031Y-4.6142
X4.8031Y-4.6929
X4.8031Y-4.7717
T3
X3.5197Y-4.9787
X3.5197Y-5.0787
X3.8764Y-3.4724
X3.9764Y-3.4724
X4.0787Y-3.315
X4.1787Y-3.315
X4.2835Y-3.4724
X4.3835Y-3.4724
X4.8031Y-4.9
X4.8031Y-5.0
X4.8031Y-5.1126
X4.8031Y-5.2126
T4
X3.7142Y-3.962
X3.7142Y-4.062
X3.7142Y-4.162
X3.7142Y-4.262
X3.7142Y-4.362
X3.7142Y-4.462
X3.7142Y-4.562
X3.7142Y-4.662
X3.7142Y-4.762
X3.7142Y-4.862
X3.7142Y-4.962
X3.7142Y-5.062
X3.7142Y-5.162
X4.6142Y-3.962
X4.6142Y-4.062
X4.6142Y-4.162
X4.6142Y-4.262
X4.6142Y-4.362
X4.6142Y-4.462
X4.6142Y-4.562
X4.6142Y-4.662
X4.6142Y-4.762
X4.6142Y-4.862
X4.6142Y-4.962
X4.6142Y-5.062
X4.6142Y-5.162
T5
X3.5433Y-5.4252
X3.5827Y-3.6063
X4.7559Y-3.622
X4.7874Y-5.4409
T0
M30
