%TF.GenerationSoftware,KiCad,Pcbnew,6.0.9-8da3e8f707~116~ubuntu20.04.1*%
%TF.CreationDate,2022-11-02T01:09:36+01:00*%
%TF.ProjectId,eleonora amianto 28bps,656c656f-6e6f-4726-9120-616d69616e74,rev?*%
%TF.SameCoordinates,Original*%
%TF.FileFunction,Copper,L2,Bot*%
%TF.FilePolarity,Positive*%
%FSLAX46Y46*%
G04 Gerber Fmt 4.6, Leading zero omitted, Abs format (unit mm)*
G04 Created by KiCad (PCBNEW 6.0.9-8da3e8f707~116~ubuntu20.04.1) date 2022-11-02 01:09:36*
%MOMM*%
%LPD*%
G01*
G04 APERTURE LIST*
%TA.AperFunction,ComponentPad*%
%ADD10R,1.800000X1.800000*%
%TD*%
%TA.AperFunction,ComponentPad*%
%ADD11C,1.800000*%
%TD*%
%TA.AperFunction,ComponentPad*%
%ADD12C,1.600000*%
%TD*%
%TA.AperFunction,ComponentPad*%
%ADD13O,1.600000X1.600000*%
%TD*%
%TA.AperFunction,ComponentPad*%
%ADD14C,6.400000*%
%TD*%
%TA.AperFunction,ComponentPad*%
%ADD15R,1.350000X1.350000*%
%TD*%
%TA.AperFunction,ComponentPad*%
%ADD16O,1.350000X1.350000*%
%TD*%
%TA.AperFunction,ComponentPad*%
%ADD17R,1.700000X1.700000*%
%TD*%
%TA.AperFunction,ComponentPad*%
%ADD18O,1.700000X1.700000*%
%TD*%
%TA.AperFunction,ComponentPad*%
%ADD19C,1.700000*%
%TD*%
%TA.AperFunction,ViaPad*%
%ADD20C,0.800000*%
%TD*%
%TA.AperFunction,Conductor*%
%ADD21C,0.250000*%
%TD*%
G04 APERTURE END LIST*
D10*
%TO.P,D2,1,K*%
%TO.N,GND*%
X103600000Y-84200000D03*
D11*
%TO.P,D2,2,A*%
%TO.N,Net-(D2-Pad2)*%
X106140000Y-84200000D03*
%TD*%
D10*
%TO.P,D3,1,K*%
%TO.N,GND*%
X98460000Y-88200000D03*
D11*
%TO.P,D3,2,A*%
%TO.N,Net-(D3-Pad2)*%
X101000000Y-88200000D03*
%TD*%
D10*
%TO.P,D1,1,K*%
%TO.N,GND*%
X108800000Y-88200000D03*
D11*
%TO.P,D1,2,A*%
%TO.N,Net-(D1-Pad2)*%
X111340000Y-88200000D03*
%TD*%
D12*
%TO.P,R1,1*%
%TO.N,Net-(R1-Pad1)*%
X107000000Y-113200000D03*
D13*
%TO.P,R1,2*%
%TO.N,Net-(D1-Pad2)*%
X107000000Y-103040000D03*
%TD*%
D12*
%TO.P,R3,1*%
%TO.N,Net-(R3-Pad1)*%
X100000000Y-113290000D03*
D13*
%TO.P,R3,2*%
%TO.N,Net-(D3-Pad2)*%
X100000000Y-103130000D03*
%TD*%
D12*
%TO.P,R4,1*%
%TO.N,Net-(R4-Pad1)*%
X105600000Y-118000000D03*
D13*
%TO.P,R4,2*%
%TO.N,Net-(D4-Pad2)*%
X105600000Y-128160000D03*
%TD*%
D12*
%TO.P,R5,1*%
%TO.N,Net-(R5-Pad1)*%
X109000000Y-118000000D03*
D13*
%TO.P,R5,2*%
%TO.N,Net-(D5-Pad2)*%
X109000000Y-128160000D03*
%TD*%
D12*
%TO.P,R6,1*%
%TO.N,Net-(R6-Pad1)*%
X112600000Y-118000000D03*
D13*
%TO.P,R6,2*%
%TO.N,Net-(D6-Pad2)*%
X112600000Y-128160000D03*
%TD*%
D12*
%TO.P,R2,1*%
%TO.N,Net-(R2-Pad1)*%
X103400000Y-113290000D03*
D13*
%TO.P,R2,2*%
%TO.N,Net-(D2-Pad2)*%
X103400000Y-103130000D03*
%TD*%
D10*
%TO.P,D5,1,K*%
%TO.N,unconnected-(D5-Pad1)*%
X122000000Y-132400000D03*
D11*
%TO.P,D5,2,A*%
%TO.N,Net-(D5-Pad2)*%
X122000000Y-129860000D03*
%TD*%
D10*
%TO.P,D6,1,K*%
%TO.N,unconnected-(D6-Pad1)*%
X89400000Y-129000000D03*
D11*
%TO.P,D6,2,A*%
%TO.N,Net-(D6-Pad2)*%
X89400000Y-126460000D03*
%TD*%
D14*
%TO.P,REF\u002A\u002A,1*%
%TO.N,N/C*%
X90000000Y-137800000D03*
%TD*%
D15*
%TO.P,RV4,1,1*%
%TO.N,GND*%
X89750000Y-118600000D03*
D16*
%TO.P,RV4,2,2*%
%TO.N,Net-(RV4-Pad2)*%
X89750000Y-120600000D03*
%TO.P,RV4,3,3*%
%TO.N,VCC*%
X89750000Y-122600000D03*
%TD*%
D15*
%TO.P,M1,1,Pin_1*%
%TO.N,Net-(M1-Pad1)*%
X122000000Y-100400000D03*
D16*
%TO.P,M1,2,Pin_2*%
%TO.N,VCC*%
X122000000Y-102400000D03*
%TO.P,M1,3,Pin_3*%
%TO.N,GND*%
X122000000Y-104400000D03*
%TD*%
D15*
%TO.P,RV1,1,1*%
%TO.N,GND*%
X122000000Y-117200000D03*
D16*
%TO.P,RV1,2,2*%
%TO.N,Net-(RV1-Pad2)*%
X122000000Y-119200000D03*
%TO.P,RV1,3,3*%
%TO.N,VCC*%
X122000000Y-121200000D03*
%TD*%
D15*
%TO.P,HB1,1,Pin_1*%
%TO.N,GND*%
X89750000Y-104400000D03*
D16*
%TO.P,HB1,2,Pin_2*%
%TO.N,VCC*%
X89750000Y-102400000D03*
%TO.P,HB1,3,Pin_3*%
%TO.N,Net-(HB1-Pad3)*%
X89750000Y-100400000D03*
%TD*%
D14*
%TO.P,REF\u002A\u002A,1*%
%TO.N,N/C*%
X121600000Y-138200000D03*
%TD*%
D15*
%TO.P,RV3,1,1*%
%TO.N,GND*%
X89800000Y-110000000D03*
D16*
%TO.P,RV3,2,2*%
%TO.N,Net-(RV3-Pad2)*%
X89800000Y-112000000D03*
%TO.P,RV3,3,3*%
%TO.N,VCC*%
X89800000Y-114000000D03*
%TD*%
D14*
%TO.P,REF\u002A\u002A,1*%
%TO.N,N/C*%
X91000000Y-91600000D03*
%TD*%
D17*
%TO.P,U1,1,VP*%
%TO.N,Net-(HB1-Pad3)*%
X94340000Y-100635000D03*
D18*
%TO.P,U1,2,VN*%
%TO.N,unconnected-(U1-Pad2)*%
X94340000Y-103175000D03*
%TO.P,U1,3,EN*%
%TO.N,unconnected-(U1-Pad3)*%
X94340000Y-105715000D03*
%TO.P,U1,4,34*%
%TO.N,unconnected-(U1-Pad4)*%
X94340000Y-108255000D03*
%TO.P,U1,5,35*%
%TO.N,unconnected-(U1-Pad5)*%
X94340000Y-110795000D03*
%TO.P,U1,6,32*%
%TO.N,unconnected-(U1-Pad6)*%
X94340000Y-113335000D03*
%TO.P,U1,7,33*%
%TO.N,unconnected-(U1-Pad7)*%
X94340000Y-115875000D03*
%TO.P,U1,8,25*%
%TO.N,unconnected-(U1-Pad8)*%
X94340000Y-118415000D03*
%TO.P,U1,9,26*%
%TO.N,Net-(RV1-Pad2)*%
X94340000Y-120955000D03*
%TO.P,U1,10,27*%
%TO.N,Net-(RV2-Pad2)*%
X94340000Y-123495000D03*
%TO.P,U1,11,14*%
%TO.N,Net-(RV3-Pad2)*%
X94340000Y-126035000D03*
%TO.P,U1,12,12*%
%TO.N,Net-(RV4-Pad2)*%
X94340000Y-128575000D03*
%TO.P,U1,13,GND*%
%TO.N,GND*%
X94340000Y-131115000D03*
D19*
%TO.P,U1,14,13*%
%TO.N,unconnected-(U1-Pad14)*%
X117200000Y-131115000D03*
D18*
%TO.P,U1,15,15*%
%TO.N,Net-(M1-Pad1)*%
X117200000Y-128575000D03*
%TO.P,U1,16,2*%
%TO.N,unconnected-(U1-Pad16)*%
X117200000Y-126035000D03*
%TO.P,U1,17,0*%
%TO.N,unconnected-(U1-Pad17)*%
X117200000Y-123495000D03*
%TO.P,U1,18,4*%
%TO.N,unconnected-(U1-Pad18)*%
X117200000Y-120955000D03*
%TO.P,U1,19,16*%
%TO.N,unconnected-(U1-Pad19)*%
X117200000Y-118415000D03*
%TO.P,U1,20,17*%
%TO.N,Net-(R6-Pad1)*%
X117200000Y-115875000D03*
%TO.P,U1,21,5*%
%TO.N,Net-(R5-Pad1)*%
X117200000Y-113335000D03*
%TO.P,U1,22,18*%
%TO.N,Net-(R4-Pad1)*%
X117200000Y-110795000D03*
%TO.P,U1,23,23*%
%TO.N,Net-(R3-Pad1)*%
X117200000Y-108255000D03*
%TO.P,U1,24,19*%
%TO.N,Net-(R2-Pad1)*%
X117200000Y-105715000D03*
%TO.P,U1,25,22*%
%TO.N,Net-(R1-Pad1)*%
X117200000Y-103175000D03*
%TO.P,U1,26,3v3*%
%TO.N,VCC*%
X117200000Y-100635000D03*
%TD*%
D10*
%TO.P,D4,1,K*%
%TO.N,unconnected-(D4-Pad1)*%
X122000000Y-127000000D03*
D11*
%TO.P,D4,2,A*%
%TO.N,Net-(D4-Pad2)*%
X122000000Y-124460000D03*
%TD*%
D15*
%TO.P,RV2,1,1*%
%TO.N,GND*%
X122000000Y-108800000D03*
D16*
%TO.P,RV2,2,2*%
%TO.N,Net-(RV2-Pad2)*%
X122000000Y-110800000D03*
%TO.P,RV2,3,3*%
%TO.N,VCC*%
X122000000Y-112800000D03*
%TD*%
D14*
%TO.P,REF\u002A\u002A,1*%
%TO.N,N/C*%
X120800000Y-92000000D03*
%TD*%
D20*
%TO.N,Net-(RV1-Pad2)*%
X112000000Y-133200000D03*
X114600000Y-132000000D03*
%TO.N,Net-(D6-Pad2)*%
X110062500Y-132737500D03*
%TD*%
D21*
%TO.N,Net-(RV1-Pad2)*%
X112000000Y-133200000D02*
X112000000Y-134600000D01*
X110155000Y-120955000D02*
X114600000Y-125400000D01*
X114600000Y-125400000D02*
X114600000Y-132000000D01*
X122800000Y-134600000D02*
X124000000Y-133400000D01*
X112000000Y-134600000D02*
X122800000Y-134600000D01*
X94340000Y-120955000D02*
X110155000Y-120955000D01*
X124000000Y-121200000D02*
X122000000Y-119200000D01*
X124000000Y-133400000D02*
X124000000Y-121200000D01*
%TO.N,Net-(RV2-Pad2)*%
X98200000Y-132600000D02*
X99200000Y-133600000D01*
X94340000Y-123495000D02*
X98200000Y-127355000D01*
X98200000Y-127355000D02*
X98200000Y-132600000D01*
X118600000Y-133800000D02*
X120200000Y-132200000D01*
X120200000Y-111400000D02*
X120800000Y-110800000D01*
X120800000Y-110800000D02*
X122000000Y-110800000D01*
X109600000Y-131600000D02*
X112400000Y-131600000D01*
X114600000Y-133800000D02*
X118600000Y-133800000D01*
X99200000Y-133600000D02*
X107600000Y-133600000D01*
X107600000Y-133600000D02*
X109600000Y-131600000D01*
X112400000Y-131600000D02*
X114600000Y-133800000D01*
X120200000Y-132200000D02*
X120200000Y-111400000D01*
%TO.N,Net-(M1-Pad1)*%
X122000000Y-100400000D02*
X120400000Y-100400000D01*
X120400000Y-100400000D02*
X119200000Y-101600000D01*
X118600000Y-128600000D02*
X118575000Y-128575000D01*
X119200000Y-128000000D02*
X118600000Y-128600000D01*
X119200000Y-101600000D02*
X119200000Y-128000000D01*
X118575000Y-128575000D02*
X117200000Y-128575000D01*
%TO.N,VCC*%
X111000000Y-110800000D02*
X102600000Y-110800000D01*
X88400000Y-102400000D02*
X89750000Y-102400000D01*
X97800000Y-106000000D02*
X97800000Y-98600000D01*
X91150000Y-114150000D02*
X89750000Y-114150000D01*
X112200000Y-109600000D02*
X111000000Y-110800000D01*
X97800000Y-98600000D02*
X96000000Y-96800000D01*
X87400000Y-98200000D02*
X87400000Y-101400000D01*
X102600000Y-110800000D02*
X97800000Y-106000000D01*
X91800000Y-113600000D02*
X91200000Y-114200000D01*
X90750000Y-122650000D02*
X89750000Y-122650000D01*
X89750000Y-102400000D02*
X91200000Y-102400000D01*
X117200000Y-100635000D02*
X113765000Y-100635000D01*
X91800000Y-121600000D02*
X90750000Y-122650000D01*
X88800000Y-96800000D02*
X87400000Y-98200000D01*
X91800000Y-113600000D02*
X91800000Y-121600000D01*
X91200000Y-102400000D02*
X91800000Y-103000000D01*
X113765000Y-100635000D02*
X112200000Y-102200000D01*
X96000000Y-96800000D02*
X88800000Y-96800000D01*
X91200000Y-114200000D02*
X91150000Y-114150000D01*
X87400000Y-101400000D02*
X88400000Y-102400000D01*
X112200000Y-102200000D02*
X112200000Y-109600000D01*
X91800000Y-103000000D02*
X91800000Y-113600000D01*
%TO.N,Net-(D6-Pad2)*%
X91800000Y-127800000D02*
X91800000Y-126800000D01*
X91800000Y-126800000D02*
X91400000Y-126400000D01*
X91400000Y-126400000D02*
X91340000Y-126460000D01*
X91340000Y-126460000D02*
X89400000Y-126460000D01*
X91600000Y-128000000D02*
X91800000Y-127800000D01*
X93800000Y-134400000D02*
X91600000Y-132200000D01*
X110062500Y-132737500D02*
X108400000Y-134400000D01*
X108400000Y-134400000D02*
X93800000Y-134400000D01*
X91600000Y-132200000D02*
X91600000Y-128000000D01*
%TD*%
M02*
