%TF.GenerationSoftware,KiCad,Pcbnew,6.0.9-8da3e8f707~116~ubuntu20.04.1*%
%TF.CreationDate,2022-11-02T01:09:37+01:00*%
%TF.ProjectId,eleonora amianto 28bps,656c656f-6e6f-4726-9120-616d69616e74,rev?*%
%TF.SameCoordinates,Original*%
%TF.FileFunction,Legend,Bot*%
%TF.FilePolarity,Positive*%
%FSLAX46Y46*%
G04 Gerber Fmt 4.6, Leading zero omitted, Abs format (unit mm)*
G04 Created by KiCad (PCBNEW 6.0.9-8da3e8f707~116~ubuntu20.04.1) date 2022-11-02 01:09:37*
%MOMM*%
%LPD*%
G01*
G04 APERTURE LIST*
%ADD10C,0.150000*%
G04 APERTURE END LIST*
D10*
X108804761Y-137447380D02*
X108233333Y-137447380D01*
X108519047Y-138447380D02*
X108519047Y-137447380D01*
X107900000Y-138447380D02*
X107900000Y-137447380D01*
X107471428Y-138447380D02*
X107471428Y-137923571D01*
X107519047Y-137828333D01*
X107614285Y-137780714D01*
X107757142Y-137780714D01*
X107852380Y-137828333D01*
X107900000Y-137875952D01*
X106614285Y-138399761D02*
X106709523Y-138447380D01*
X106900000Y-138447380D01*
X106995238Y-138399761D01*
X107042857Y-138304523D01*
X107042857Y-137923571D01*
X106995238Y-137828333D01*
X106900000Y-137780714D01*
X106709523Y-137780714D01*
X106614285Y-137828333D01*
X106566666Y-137923571D01*
X106566666Y-138018809D01*
X107042857Y-138114047D01*
X105042857Y-137923571D02*
X104900000Y-137971190D01*
X104852380Y-138018809D01*
X104804761Y-138114047D01*
X104804761Y-138256904D01*
X104852380Y-138352142D01*
X104900000Y-138399761D01*
X104995238Y-138447380D01*
X105376190Y-138447380D01*
X105376190Y-137447380D01*
X105042857Y-137447380D01*
X104947619Y-137495000D01*
X104900000Y-137542619D01*
X104852380Y-137637857D01*
X104852380Y-137733095D01*
X104900000Y-137828333D01*
X104947619Y-137875952D01*
X105042857Y-137923571D01*
X105376190Y-137923571D01*
X104376190Y-138447380D02*
X104376190Y-137447380D01*
X103995238Y-137447380D01*
X103900000Y-137495000D01*
X103852380Y-137542619D01*
X103804761Y-137637857D01*
X103804761Y-137780714D01*
X103852380Y-137875952D01*
X103900000Y-137923571D01*
X103995238Y-137971190D01*
X104376190Y-137971190D01*
X103423809Y-138399761D02*
X103280952Y-138447380D01*
X103042857Y-138447380D01*
X102947619Y-138399761D01*
X102900000Y-138352142D01*
X102852380Y-138256904D01*
X102852380Y-138161666D01*
X102900000Y-138066428D01*
X102947619Y-138018809D01*
X103042857Y-137971190D01*
X103233333Y-137923571D01*
X103328571Y-137875952D01*
X103376190Y-137828333D01*
X103423809Y-137733095D01*
X103423809Y-137637857D01*
X103376190Y-137542619D01*
X103328571Y-137495000D01*
X103233333Y-137447380D01*
X102995238Y-137447380D01*
X102852380Y-137495000D01*
X109280952Y-139533571D02*
X108947619Y-139533571D01*
X108804761Y-140057380D02*
X109280952Y-140057380D01*
X109280952Y-139057380D01*
X108804761Y-139057380D01*
X108471428Y-140057380D02*
X107947619Y-139390714D01*
X108471428Y-139390714D02*
X107947619Y-140057380D01*
X107566666Y-139390714D02*
X107566666Y-140390714D01*
X107566666Y-139438333D02*
X107471428Y-139390714D01*
X107280952Y-139390714D01*
X107185714Y-139438333D01*
X107138095Y-139485952D01*
X107090476Y-139581190D01*
X107090476Y-139866904D01*
X107138095Y-139962142D01*
X107185714Y-140009761D01*
X107280952Y-140057380D01*
X107471428Y-140057380D01*
X107566666Y-140009761D01*
X106280952Y-140009761D02*
X106376190Y-140057380D01*
X106566666Y-140057380D01*
X106661904Y-140009761D01*
X106709523Y-139914523D01*
X106709523Y-139533571D01*
X106661904Y-139438333D01*
X106566666Y-139390714D01*
X106376190Y-139390714D01*
X106280952Y-139438333D01*
X106233333Y-139533571D01*
X106233333Y-139628809D01*
X106709523Y-139724047D01*
X105804761Y-140057380D02*
X105804761Y-139390714D01*
X105804761Y-139581190D02*
X105757142Y-139485952D01*
X105709523Y-139438333D01*
X105614285Y-139390714D01*
X105519047Y-139390714D01*
X105185714Y-140057380D02*
X105185714Y-139390714D01*
X105185714Y-139057380D02*
X105233333Y-139105000D01*
X105185714Y-139152619D01*
X105138095Y-139105000D01*
X105185714Y-139057380D01*
X105185714Y-139152619D01*
X104709523Y-140057380D02*
X104709523Y-139390714D01*
X104709523Y-139485952D02*
X104661904Y-139438333D01*
X104566666Y-139390714D01*
X104423809Y-139390714D01*
X104328571Y-139438333D01*
X104280952Y-139533571D01*
X104280952Y-140057380D01*
X104280952Y-139533571D02*
X104233333Y-139438333D01*
X104138095Y-139390714D01*
X103995238Y-139390714D01*
X103900000Y-139438333D01*
X103852380Y-139533571D01*
X103852380Y-140057380D01*
X102995238Y-140009761D02*
X103090476Y-140057380D01*
X103280952Y-140057380D01*
X103376190Y-140009761D01*
X103423809Y-139914523D01*
X103423809Y-139533571D01*
X103376190Y-139438333D01*
X103280952Y-139390714D01*
X103090476Y-139390714D01*
X102995238Y-139438333D01*
X102947619Y-139533571D01*
X102947619Y-139628809D01*
X103423809Y-139724047D01*
X102519047Y-139390714D02*
X102519047Y-140057380D01*
X102519047Y-139485952D02*
X102471428Y-139438333D01*
X102376190Y-139390714D01*
X102233333Y-139390714D01*
X102138095Y-139438333D01*
X102090476Y-139533571D01*
X102090476Y-140057380D01*
X101757142Y-139390714D02*
X101376190Y-139390714D01*
X101614285Y-139057380D02*
X101614285Y-139914523D01*
X101566666Y-140009761D01*
X101471428Y-140057380D01*
X101376190Y-140057380D01*
X107492976Y-92347142D02*
X107540595Y-92394761D01*
X107683452Y-92442380D01*
X107778690Y-92442380D01*
X107921547Y-92394761D01*
X108016785Y-92299523D01*
X108064404Y-92204285D01*
X108112023Y-92013809D01*
X108112023Y-91870952D01*
X108064404Y-91680476D01*
X108016785Y-91585238D01*
X107921547Y-91490000D01*
X107778690Y-91442380D01*
X107683452Y-91442380D01*
X107540595Y-91490000D01*
X107492976Y-91537619D01*
X107064404Y-92442380D02*
X107064404Y-91442380D01*
X106635833Y-92442380D02*
X106635833Y-91918571D01*
X106683452Y-91823333D01*
X106778690Y-91775714D01*
X106921547Y-91775714D01*
X107016785Y-91823333D01*
X107064404Y-91870952D01*
X106159642Y-92442380D02*
X106159642Y-91775714D01*
X106159642Y-91442380D02*
X106207261Y-91490000D01*
X106159642Y-91537619D01*
X106112023Y-91490000D01*
X106159642Y-91442380D01*
X106159642Y-91537619D01*
X104921547Y-92442380D02*
X104921547Y-91442380D01*
X104492976Y-92442380D02*
X104492976Y-91918571D01*
X104540595Y-91823333D01*
X104635833Y-91775714D01*
X104778690Y-91775714D01*
X104873928Y-91823333D01*
X104921547Y-91870952D01*
X103588214Y-92442380D02*
X103588214Y-91918571D01*
X103635833Y-91823333D01*
X103731071Y-91775714D01*
X103921547Y-91775714D01*
X104016785Y-91823333D01*
X103588214Y-92394761D02*
X103683452Y-92442380D01*
X103921547Y-92442380D01*
X104016785Y-92394761D01*
X104064404Y-92299523D01*
X104064404Y-92204285D01*
X104016785Y-92109047D01*
X103921547Y-92061428D01*
X103683452Y-92061428D01*
X103588214Y-92013809D01*
X108064404Y-93052380D02*
X108064404Y-93861904D01*
X108016785Y-93957142D01*
X107969166Y-94004761D01*
X107873928Y-94052380D01*
X107683452Y-94052380D01*
X107588214Y-94004761D01*
X107540595Y-93957142D01*
X107492976Y-93861904D01*
X107492976Y-93052380D01*
X106588214Y-94004761D02*
X106683452Y-94052380D01*
X106873928Y-94052380D01*
X106969166Y-94004761D01*
X107016785Y-93957142D01*
X107064404Y-93861904D01*
X107064404Y-93576190D01*
X107016785Y-93480952D01*
X106969166Y-93433333D01*
X106873928Y-93385714D01*
X106683452Y-93385714D01*
X106588214Y-93433333D01*
X105731071Y-94004761D02*
X105826309Y-94052380D01*
X106016785Y-94052380D01*
X106112023Y-94004761D01*
X106159642Y-93957142D01*
X106207261Y-93861904D01*
X106207261Y-93576190D01*
X106159642Y-93480952D01*
X106112023Y-93433333D01*
X106016785Y-93385714D01*
X105826309Y-93385714D01*
X105731071Y-93433333D01*
X105302500Y-94052380D02*
X105302500Y-93385714D01*
X105302500Y-93052380D02*
X105350119Y-93100000D01*
X105302500Y-93147619D01*
X105254880Y-93100000D01*
X105302500Y-93052380D01*
X105302500Y-93147619D01*
X104873928Y-94004761D02*
X104778690Y-94052380D01*
X104588214Y-94052380D01*
X104492976Y-94004761D01*
X104445357Y-93909523D01*
X104445357Y-93861904D01*
X104492976Y-93766666D01*
X104588214Y-93719047D01*
X104731071Y-93719047D01*
X104826309Y-93671428D01*
X104873928Y-93576190D01*
X104873928Y-93528571D01*
X104826309Y-93433333D01*
X104731071Y-93385714D01*
X104588214Y-93385714D01*
X104492976Y-93433333D01*
X103873928Y-94052380D02*
X103969166Y-94004761D01*
X104016785Y-93957142D01*
X104064404Y-93861904D01*
X104064404Y-93576190D01*
X104016785Y-93480952D01*
X103969166Y-93433333D01*
X103873928Y-93385714D01*
X103731071Y-93385714D01*
X103635833Y-93433333D01*
X103588214Y-93480952D01*
X103540595Y-93576190D01*
X103540595Y-93861904D01*
X103588214Y-93957142D01*
X103635833Y-94004761D01*
X103731071Y-94052380D01*
X103873928Y-94052380D01*
X108064404Y-95662380D02*
X108064404Y-94662380D01*
X107445357Y-95662380D02*
X107540595Y-95614761D01*
X107588214Y-95519523D01*
X107588214Y-94662380D01*
X105731071Y-95567142D02*
X105778690Y-95614761D01*
X105921547Y-95662380D01*
X106016785Y-95662380D01*
X106159642Y-95614761D01*
X106254880Y-95519523D01*
X106302500Y-95424285D01*
X106350119Y-95233809D01*
X106350119Y-95090952D01*
X106302500Y-94900476D01*
X106254880Y-94805238D01*
X106159642Y-94710000D01*
X106016785Y-94662380D01*
X105921547Y-94662380D01*
X105778690Y-94710000D01*
X105731071Y-94757619D01*
X105159642Y-95662380D02*
X105254880Y-95614761D01*
X105302500Y-95567142D01*
X105350119Y-95471904D01*
X105350119Y-95186190D01*
X105302500Y-95090952D01*
X105254880Y-95043333D01*
X105159642Y-94995714D01*
X105016785Y-94995714D01*
X104921547Y-95043333D01*
X104873928Y-95090952D01*
X104826309Y-95186190D01*
X104826309Y-95471904D01*
X104873928Y-95567142D01*
X104921547Y-95614761D01*
X105016785Y-95662380D01*
X105159642Y-95662380D01*
X104397738Y-94995714D02*
X104397738Y-95662380D01*
X104397738Y-95090952D02*
X104350119Y-95043333D01*
X104254880Y-94995714D01*
X104112023Y-94995714D01*
X104016785Y-95043333D01*
X103969166Y-95138571D01*
X103969166Y-95662380D01*
X103635833Y-94995714D02*
X103254880Y-94995714D01*
X103492976Y-94662380D02*
X103492976Y-95519523D01*
X103445357Y-95614761D01*
X103350119Y-95662380D01*
X103254880Y-95662380D01*
X102540595Y-95614761D02*
X102635833Y-95662380D01*
X102826309Y-95662380D01*
X102921547Y-95614761D01*
X102969166Y-95519523D01*
X102969166Y-95138571D01*
X102921547Y-95043333D01*
X102826309Y-94995714D01*
X102635833Y-94995714D01*
X102540595Y-95043333D01*
X102492976Y-95138571D01*
X102492976Y-95233809D01*
X102969166Y-95329047D01*
X101921547Y-95567142D02*
X101873928Y-95614761D01*
X101921547Y-95662380D01*
X101969166Y-95614761D01*
X101921547Y-95567142D01*
X101921547Y-95662380D01*
X102112023Y-94710000D02*
X102016785Y-94662380D01*
X101778690Y-94662380D01*
X101683452Y-94710000D01*
X101635833Y-94805238D01*
X101635833Y-94900476D01*
X101683452Y-94995714D01*
X101731071Y-95043333D01*
X101826309Y-95090952D01*
X101873928Y-95138571D01*
X101921547Y-95233809D01*
X101921547Y-95281428D01*
M02*
